PathFileType	4	(X/Y/Z)	C:\Users\Basilio\Documents\Thesis Gigler\squatting_fais\c3dfiles\073\SLS_front_pre5\markers_experimental.trc
DataRate	CameraRate	NumFrames	NumMarkers	Units	OrigDataRate	OrigDataStartFrame	OrigNumFrames
200.000000	200.000000	4	61	mm	200.000000	319	1279
Frame#	Time	FHD			LBHD			RBHD			C7			T10			CLAV			LSHO			LUUPA			LMUPA			LDUPA			LLEP			LMEP			LRAD			LUL			LRFIN			RSHO			RUPA1			RMUPA			RDUPA			RLEP			RMEP			RUL			RUFIN			LASI			RASI			USACR			LSACR			RSACR			LTHI1			LTHI2			LTHI3			LTHI4			LLFC			LMFC			LTIB1			LTIB2			LTIB3			LTIB4			LLMAL			LMMAL			LHEE			LMT1			LMT2			LMT5			RTHI			RTHI2			RTHI3			RTHI4			RLFC			RMFC			RTIB1			RTIB2			RTIB3			RTIB4			RLMAL			RMMAL			RHEE			RMT1			RMT2			RMT5			RRAD			
		X1	Y1	Z1	X2	Y2	Z2	X3	Y3	Z3	X4	Y4	Z4	X5	Y5	Z5	X6	Y6	Z6	X7	Y7	Z7	X8	Y8	Z8	X9	Y9	Z9	X10	Y10	Z10	X11	Y11	Z11	X12	Y12	Z12	X13	Y13	Z13	X14	Y14	Z14	X15	Y15	Z15	X16	Y16	Z16	X17	Y17	Z17	X18	Y18	Z18	X19	Y19	Z19	X20	Y20	Z20	X21	Y21	Z21	X22	Y22	Z22	X23	Y23	Z23	X24	Y24	Z24	X25	Y25	Z25	X26	Y26	Z26	X27	Y27	Z27	X28	Y28	Z28	X29	Y29	Z29	X30	Y30	Z30	X31	Y31	Z31	X32	Y32	Z32	X33	Y33	Z33	X34	Y34	Z34	X35	Y35	Z35	X36	Y36	Z36	X37	Y37	Z37	X38	Y38	Z38	X39	Y39	Z39	X40	Y40	Z40	X41	Y41	Z41	X42	Y42	Z42	X43	Y43	Z43	X44	Y44	Z44	X45	Y45	Z45	X46	Y46	Z46	X47	Y47	Z47	X48	Y48	Z48	X49	Y49	Z49	X50	Y50	Z50	X51	Y51	Z51	X52	Y52	Z52	X53	Y53	Z53	X54	Y54	Z54	X55	Y55	Z55	X56	Y56	Z56	X57	Y57	Z57	X58	Y58	Z58	X59	Y59	Z59	X60	Y60	Z60	X61	Y61	Z61	

320	1.595	-162.4061889648438	1519.4541015625	-773.2614746093752	-298.7792358398438	1500.31396484375	-799.4153442382815	-324.3389587402344	1483.4921875	-665.9514160156251	-361.3767089843751	1397.755493164063	-729.5960693359376	-522.5694580078126	1105.4853515625	-736.1698608398439	-260.4689025878907	1285.062744140625	-731.3494262695314	-276.7415466308594	1343.521484375	-872.9006958007815	-208.1266784667969	1257.810913085938	-967.1798095703127	-164.6565093994141	1272.222900390625	-945.9727172851565	-150.2437133789063	1221.759155273438	-977.2788696289065	-49.99838256835939	1183.75634765625	-980.7849731445315	-59.41955184936525	1130.7626953125	-934.3420410156252	210.1837158203126	1186.891357421875	-868.8132324218752	213.8190612792969	1182.182983398438	-942.9000244140627	291.6696472167969	1192.093872070313	-861.338562011719	-264.7153015136719	1328.71826171875	-587.9062500000001	-189.7864227294922	1215.547119140625	-491.1004943847657	-147.8814239501953	1231.944213867188	-507.8591308593751	-131.5294342041016	1178.574951171875	-486.5137329101564	-42.67917633056641	1148.954345703125	-488.4766540527345	-55.1378746032715	1096.41845703125	-551.5921020507814	219.2435760498047	1161.452270507813	-544.7396850585939	294.1438293457032	1171.89208984375	-629.7728881835939	-397.5580444335939	939.2633056640627	-883.9982910156252	-379.4046325683594	914.2303466796877	-638.0352783203126	-566.2926635742189	976.5960083007815	-743.5911865234376	-577.2227783203126	948.6483154296877	-773.5955810546877	-575.2428588867189	941.4856567382815	-718.4282836914064	-228.6136779785157	731.3279418945314	-945.1519775390627	-149.1697387695313	711.1578369140626	-922.5169067382815	-130.8171539306641	742.2296752929689	-888.3255615234377	-126.063461303711	657.2617187500001	-918.0111083984377	-80.79787445068361	618.0375366210939	-917.974548339844	-87.4412078857422	601.9916992187501	-778.7314453125002	92.56410217285158	513.0880126953126	-866.5146484375002	82.38719940185548	447.7892150878907	-923.0596923828127	115.3778228759766	469.718475341797	-900.1506958007815	171.1047973632813	414.037811279297	-868.2341308593752	212.6021881103516	288.6420898437501	-899.0503540039065	201.2735290527344	307.0514831542969	-813.7666015625002	190.7806854248047	222.4776916503907	-860.9783935546877	356.5939941406251	365.0958251953126	-804.9042968750002	359.1279296875001	369.0872802734376	-843.6845703125002	351.6199340820313	331.7958679199219	-900.0884399414065	-350.0888671875001	684.0115356445314	-583.7303466796876	-289.0671997070313	657.5671386718751	-583.9281005859376	-262.0212097167969	676.9045410156251	-586.3426513671876	-267.7260131835938	580.1896362304689	-609.5146484375001	-189.0670776367188	465.4049682617189	-634.3068847656251	-180.7111358642578	474.0891113281251	-761.8976440429689	-197.8527984619141	318.0677490234376	-742.8596801757814	-248.0148620605469	243.5050354003907	-683.3619995117189	-228.7324981689454	237.9163665771485	-727.0864257812501	-266.1228027343751	209.1901245117188	-761.1004028320314	-355.4353332519532	95.56268310546876	-716.8308715820314	-346.1120300292969	130.9961242675782	-801.6453857421877	-431.9650268554689	84.24639892578126	-774.4528808593752	-208.5414733886719	55.51364898681642	-788.7069091796877	-208.5290832519532	51.0735321044922	-747.7354125976564	-251.9040832519532	33.30788803100587	-700.0139160156251	208.3927307128907	1153.783203125	-622.0804443359376	
321	1.6	-162.2836456298828	1518.102661132813	-773.2791748046877	-298.5248107910157	1499.177368164063	-799.4451293945315	-324.1503295898438	1482.219604492188	-665.9951171875001	-361.0481872558594	1396.595581054688	-729.5820922851564	-522.7106323242189	1104.669799804688	-736.1300659179689	-260.2529907226563	1283.538940429688	-731.2722167968751	-276.5414428710938	1342.398071289063	-872.9779052734377	-207.9791564941407	1256.5341796875	-967.1389160156252	-164.4908599853516	1271.194946289063	-945.9344482421877	-150.141830444336	1220.622314453125	-977.3076782226565	-49.69949340820314	1182.7099609375	-980.7855224609377	-59.19475173950197	1129.65087890625	-934.4197387695315	210.2918090820313	1185.811889648438	-868.8160400390627	214.015853881836	1181.051635742188	-942.902770996094	291.8889465332032	1190.918823242188	-861.3935546875002	-264.4266662597657	1327.722534179688	-587.9744262695314	-189.492904663086	1214.418212890625	-491.1425170898439	-147.6523742675782	1230.804077148438	-507.9330444335939	-131.321029663086	1177.402099609375	-486.4382629394532	-42.44266891479493	1147.737670898438	-488.4834289550782	-54.96296691894533	1095.280151367188	-551.7304687500001	219.434555053711	1160.15576171875	-544.8096313476564	294.2947692871094	1170.572998046875	-629.8544921875001	-397.9140930175782	938.3977050781252	-884.053405761719	-379.7011718750001	913.4250488281252	-637.9552001953126	-566.4821166992189	975.7066650390627	-743.5353393554689	-577.5604248046876	947.7416992187502	-773.4947509765627	-575.4235229492189	940.6679687500002	-718.3836059570314	-228.629379272461	730.6824340820314	-945.096130371094	-149.1300506591797	710.7333984375001	-922.7371215820315	-130.8773040771485	741.7983398437501	-888.204284667969	-125.9873123168946	656.8767700195314	-917.9323730468752	-80.61167907714845	617.7373046875001	-917.8455200195315	-87.28213500976564	601.7510375976564	-778.5611572265627	92.57743072509767	512.9796752929689	-866.110046386719	82.65844726562501	447.7086181640626	-922.9053955078127	115.7037734985352	469.5406188964845	-900.0034790039065	171.3709869384766	413.9573059082032	-868.0302734375002	213.0653533935547	288.5911254882813	-898.8633422851565	201.5902252197266	307.0511474609376	-813.511901855469	191.2440643310547	222.4536132812501	-860.7518310546877	356.9602661132813	365.3033142089844	-804.4346923828127	359.6382446289063	369.5887451171876	-843.478698730469	352.0451354980469	331.9337158203126	-899.7920532226565	-349.9618530273438	683.2838745117189	-583.6957397460939	-288.9390258789063	657.0039062500001	-583.7177124023439	-261.8602294921876	676.3837890625001	-586.2691650390626	-267.3851623535157	579.7036132812501	-609.4517211914064	-188.5944061279297	465.1188049316407	-634.3404541015626	-180.2970123291016	473.8099365234376	-761.9208374023439	-197.5988006591797	317.7922668457032	-742.9595947265626	-247.7853088378907	243.3398132324219	-683.4934082031251	-228.6284179687501	237.7499542236329	-727.0832519531251	-265.9876708984376	209.0958709716797	-761.0830078125001	-355.4366760253907	95.54661560058595	-716.7960815429689	-346.0858764648438	131.0271453857422	-801.542663574219	-431.9538574218751	84.2529754638672	-774.4117431640627	-208.5277099609376	55.5100555419922	-788.6985473632815	-208.5195617675782	51.08211135864259	-747.7028198242189	-251.9184265136719	33.31300354003907	-699.9889526367189	208.4708404541016	1152.417724609375	-622.1995849609376	
322	1.605	-162.1104583740235	1517.119995117188	-773.3557128906252	-298.2896423339844	1497.947631835938	-799.363952636719	-323.8647766113282	1481.245239257813	-666.0173339843751	-360.7005615234376	1395.569702148438	-729.5807495117189	-522.8143310546876	1103.942626953125	-736.1492919921876	-260.0461425781251	1282.473388671875	-731.3349609375001	-276.3182983398438	1341.3408203125	-872.849304199219	-207.7583007812501	1255.451538085938	-967.1217041015627	-164.3617858886719	1269.981201171875	-945.9421386718752	-149.907211303711	1219.36328125	-977.3168945312502	-49.76592254638673	1181.512573242188	-980.6658935546877	-59.09634399414064	1128.567260742188	-934.2028808593752	210.4999237060547	1184.587036132813	-868.7697753906252	214.0797424316407	1179.781616210938	-942.8781738281252	291.9994201660157	1189.784912109375	-861.3101196289065	-264.2503356933594	1326.510986328125	-588.0618896484376	-189.2386322021485	1213.334350585938	-491.0494384765626	-147.3756713867188	1229.6220703125	-507.9704589843751	-131.1389617919922	1176.243041992188	-486.5051879882814	-42.29485702514649	1146.5888671875	-488.4983825683595	-54.76666259765626	1094.06884765625	-551.6965942382814	219.6646270751954	1158.898315429688	-544.9148559570314	294.4516296386719	1169.215454101563	-629.9631347656251	-398.1889038085939	937.440612792969	-884.019958496094	-379.9623107910157	912.6204223632815	-637.9551391601564	-566.8625488281251	974.8701782226565	-743.4759521484376	-577.8198852539064	946.8402099609377	-773.3658447265627	-575.7009277343751	939.8306884765627	-718.2633666992189	-228.7366943359376	730.1500244140626	-944.9929199218752	-149.1731414794922	710.2753295898439	-922.7023925781252	-130.9568176269532	741.3895874023439	-888.2935180664065	-125.9004898071289	656.4729614257814	-917.892761230469	-80.55664062500001	617.4833984375001	-917.6958618164065	-87.13970947265626	601.5280151367189	-778.451354980469	92.77443695068361	512.8335571289064	-865.9423828125002	83.04971313476564	447.494110107422	-922.6226806640627	115.9228515625	469.4283752441407	-899.7522583007815	171.7235717773438	413.954803466797	-867.758483886719	213.4636230468751	288.6077270507813	-898.6488037109377	201.8909149169922	307.0042114257813	-813.2791748046877	191.6908569335938	222.343490600586	-860.521911621094	357.1572875976563	365.3283081054688	-804.2175292968752	359.8444824218751	369.6856384277344	-843.1270141601565	352.2350158691407	332.0699157714844	-899.4910278320315	-349.8612365722657	682.5926513671876	-583.5804443359376	-288.7489013671876	656.3936157226564	-583.6896362304689	-261.7110900878907	675.8559570312501	-586.2631835937501	-267.0652770996094	579.1800537109376	-609.4315795898439	-188.1534118652344	464.7600097656251	-634.2785034179689	-179.885482788086	473.5285034179689	-761.9218750000001	-197.3529663085938	317.6005859375001	-742.9726562500001	-247.5184631347657	243.4032135009766	-683.8541259765626	-228.4330749511719	237.6103820800782	-727.1104125976564	-265.8546142578126	208.9641571044922	-761.0847778320314	-355.4424438476563	95.46732330322267	-716.7775878906251	-346.0269775390626	131.0409240722657	-801.4594726562502	-431.9649658203126	84.23959350585939	-774.4009399414065	-208.5072937011719	55.56401443481447	-788.6822509765627	-208.5235443115235	51.06881332397462	-747.7182617187501	-251.9109802246094	33.29370498657227	-699.9483642578126	208.5385131835938	1151.105834960938	-622.0829467773439	
323	1.61	-161.8433990478516	1515.904174804688	-773.3803710937502	-298.0896301269532	1496.78369140625	-799.4326171875002	-323.5939636230469	1480.080932617188	-666.0045166015626	-360.4343566894532	1394.497436523438	-729.6127319335939	-522.9785766601564	1103.160278320313	-736.0436401367189	-259.7945861816407	1281.476196289063	-731.4140014648439	-276.0928649902344	1340.247924804688	-872.7967529296877	-207.6319885253907	1254.35400390625	-967.137390136719	-164.2477569580078	1268.89013671875	-945.9592895507815	-149.7761688232422	1218.356079101563	-977.3171386718752	-49.76684951782228	1180.352294921875	-980.8037109375002	-59.00724029541017	1127.308715820313	-934.2512207031252	210.6894226074219	1183.422607421875	-868.718444824219	214.2615814208985	1178.610107421875	-942.7983398437502	292.0990295410157	1188.613037109375	-861.290466308594	-263.9741210937501	1325.28369140625	-588.0693969726564	-189.0386505126953	1212.244995117188	-491.165496826172	-147.1896209716797	1228.53955078125	-508.0060119628907	-130.9084930419922	1175.16845703125	-486.536834716797	-42.09412002563477	1145.3916015625	-488.5856323242189	-54.70499420166017	1092.771362304688	-551.6710205078126	219.8088836669922	1157.60693359375	-544.9800415039064	294.6240844726563	1167.872436523438	-630.1093139648439	-398.4806518554689	936.557800292969	-884.1361083984377	-380.2498168945313	911.7542114257815	-637.8878173828126	-567.1101074218751	973.9996337890627	-743.4591674804689	-578.1791992187501	945.9859008789065	-773.207458496094	-575.9802856445314	938.983093261719	-718.1618041992189	-228.7252655029297	729.5595703125001	-944.9669189453127	-149.1905975341797	709.8062744140626	-922.7586059570315	-131.0470275878907	741.0119018554689	-888.2542724609377	-125.7729797363282	656.0506591796876	-917.7496337890627	-80.44351196289064	617.2379760742189	-917.5225830078127	-87.00235748291017	601.3491821289064	-778.3218994140627	92.98754119873048	512.7651977539064	-865.7339477539065	83.4577102661133	447.4318847656251	-922.3162841796877	116.1607513427735	469.404022216797	-899.5538330078127	172.0377349853516	413.9236755371095	-867.5916137695315	213.8202056884766	288.5486145019532	-898.3438720703127	202.2660522460938	306.9847717285157	-812.9874267578127	192.1584014892579	222.3188018798829	-860.1804199218752	357.3931274414063	365.4877624511719	-803.986511230469	360.0931701660157	369.7389526367188	-842.8044433593752	352.7295227050782	332.1922302246094	-899.2597656250002	-349.7584838867188	681.9292602539064	-583.5254516601564	-288.4905395507813	655.9099731445314	-583.7341308593751	-261.5403747558594	675.4321289062501	-586.3057861328126	-266.7696533203126	578.6903686523439	-609.3970336914064	-187.6974182128907	464.410369873047	-634.2946166992189	-179.3145599365235	473.2702636718751	-761.9084472656251	-197.0459594726563	317.2694091796876	-743.0126342773439	-247.4019165039063	243.0542144775391	-683.3773193359376	-228.2515258789063	237.4464874267579	-727.0560913085939	-265.6765441894532	208.9346466064454	-761.1085815429689	-355.4175720214844	95.44055175781251	-716.7167358398439	-346.0154724121094	131.0440673828125	-801.360290527344	-431.978485107422	84.26238250732423	-774.366882324219	-208.5023803710938	55.60924530029298	-788.689392089844	-208.5122375488282	51.06168365478517	-747.7081909179689	-251.8864288330079	33.22876739501954	-699.9566650390626	208.7834777832032	1149.742065429688	-622.2489624023439	
